<?xml version="1.0" encoding="UTF-8"?>
<svg enable-background="new 0 0 216 216" version="1.1" viewBox="0 0 216 216" xml:space="preserve" xmlns="http://www.w3.org/2000/svg">
	<path d="m167 52h-118c-3.3 0-6 3.2-6 7.1v70.7c0 2.7 1.3 7.1 10 7.1h4v-4h-4c-6 0-6-2.2-6-3.1v-70.7c0-1.9 1.1-3.1 2-3.1h118c0.9 0 2 1.3 2 3.1v70.7c0 0.9-0.2 1.7-0.4 2.5-0.1 0.2-0.1 0.4-0.2 0.7h-27.4v4h30v-4c0.1 0 0.5 0.1 0.8 0.4 0.3 0.4 0.4 0.8 0.4 0.9 0-0.2 0.1-0.6 0.2-0.9 0.2-0.9 0.6-2.1 0.6-3.5v-70.8c0-3.9-2.7-7.1-6-7.1z"/>
	<path d="m131 88h-64c-3.3 0-6 2.7-6 6v46c0 3.3 2.7 6 6 6h8v-4h-8c-1.1 0-2-0.9-2-2v-46c0-1.1 0.9-2 2-2h64c1.1 0 2 0.9 2 2v46c0 1.1-0.9 2-2 2h-8v4h8c3.3 0 6-2.7 6-6v-46c0-3.3-2.7-6-6-6z"/>
	<path d="m113 115h-28c-3.3 0-6 2.7-6 6v46c0 3.3 2.7 6 6 6h28c3.3 0 6-2.7 6-6v-46c0-3.3-2.7-6-6-6zm2 52c0 1.1-0.9 2-2 2h-28c-1.1 0-2-0.9-2-2v-46c0-1.1 0.9-2 2-2h28c1.1 0 2 0.9 2 2v46z"/>
	<path d="m57.3 70.7c0-0.2 0-0.4 0.1-0.6s0.2-0.3 0.3-0.5c0.1-0.1 0.3-0.2 0.5-0.3s0.4-0.1 0.6-0.1 0.4 0 0.6 0.1 0.3 0.2 0.5 0.3c0.1 0.1 0.2 0.3 0.3 0.5s0.1 0.4 0.1 0.6 0 0.4-0.1 0.6-0.2 0.3-0.3 0.4-0.3 0.2-0.5 0.3-0.4 0.1-0.6 0.1-0.4 0-0.6-0.1-0.3-0.2-0.5-0.3c-0.1-0.1-0.2-0.3-0.3-0.4-0.1-0.2-0.1-0.4-0.1-0.6z"/>
	<path d="M65.2,60h4.7v10.2h2.4V72h-7.1v-1.8h2.5v-8.5h-2.5V60z"/>
	<path d="m75.3 106.7c0-0.2 0-0.4 0.1-0.6s0.2-0.3 0.3-0.5c0.1-0.1 0.3-0.2 0.5-0.3s0.4-0.1 0.6-0.1 0.4 0 0.6 0.1 0.3 0.2 0.5 0.3c0.1 0.1 0.2 0.3 0.3 0.5s0.1 0.4 0.1 0.6 0 0.4-0.1 0.6-0.2 0.3-0.3 0.4-0.3 0.2-0.5 0.3-0.4 0.1-0.6 0.1-0.4 0-0.6-0.1-0.3-0.2-0.5-0.3c-0.1-0.1-0.2-0.3-0.3-0.4-0.1-0.2-0.1-0.4-0.1-0.6z"/>
	<path d="m84.1 99.5l0.1 1c0.2-0.4 0.4-0.7 0.7-0.9s0.6-0.3 1-0.3c0.7 0 1.1 0.3 1.3 0.9 0.2-0.3 0.4-0.5 0.6-0.7 0.3-0.2 0.6-0.2 0.9-0.2s0.5 0 0.7 0.1 0.4 0.2 0.6 0.4 0.3 0.5 0.4 0.8 0.1 0.7 0.1 1.2v6h-2v-6c0-0.2 0-0.3-0.1-0.4 0-0.1-0.1-0.2-0.1-0.2-0.1-0.1-0.1-0.1-0.2-0.1h-0.2c-0.2 0-0.3 0-0.4 0.1s-0.2 0.2-0.2 0.3v6.5h-1.9v-6-0.4c0-0.1-0.1-0.2-0.1-0.2-0.1-0.1-0.1-0.1-0.2-0.1h-0.2c-0.2 0-0.3 0-0.4 0.1s-0.2 0.2-0.2 0.4v6.3h-2v-8.5h1.8z"/>
	<path d="m93.3 133.7c0-0.2 0-0.4 0.1-0.6s0.2-0.3 0.3-0.5c0.1-0.1 0.3-0.2 0.5-0.3s0.4-0.1 0.6-0.1 0.4 0 0.6 0.1 0.3 0.2 0.5 0.3c0.1 0.1 0.2 0.3 0.3 0.5s0.1 0.4 0.1 0.6 0 0.4-0.1 0.6-0.2 0.3-0.3 0.4-0.3 0.2-0.5 0.3-0.4 0.1-0.6 0.1-0.4 0-0.6-0.1-0.3-0.2-0.5-0.3c-0.1-0.1-0.2-0.3-0.3-0.4-0.1-0.2-0.1-0.4-0.1-0.6z"/>
	<path d="m106.2 132.7c0-0.1 0-0.2-0.1-0.3l-0.3-0.3c-0.2-0.1-0.4-0.2-0.6-0.2-0.3-0.1-0.6-0.1-1-0.2-0.5-0.1-0.9-0.2-1.4-0.4-0.4-0.1-0.8-0.3-1.1-0.5s-0.5-0.5-0.7-0.7c-0.2-0.3-0.2-0.6-0.2-1 0-0.3 0.1-0.7 0.2-1 0.2-0.3 0.4-0.6 0.7-0.8s0.7-0.4 1.1-0.6c0.4-0.1 1-0.2 1.5-0.2 0.6 0 1.1 0.1 1.6 0.2s0.9 0.3 1.2 0.6c0.3 0.2 0.6 0.5 0.7 0.9 0.2 0.3 0.3 0.7 0.3 1.1h-2.2c0-0.3-0.1-0.6-0.4-0.8s-0.7-0.3-1.2-0.3-0.9 0.1-1.1 0.3c-0.3 0.2-0.4 0.4-0.4 0.7 0 0.1 0 0.2 0.1 0.3s0.1 0.2 0.3 0.3 0.3 0.2 0.5 0.2c0.2 0.1 0.5 0.1 0.9 0.2 0.5 0.1 1 0.2 1.4 0.3s0.8 0.3 1.1 0.5 0.6 0.5 0.7 0.8c0.2 0.3 0.3 0.6 0.3 1.1 0 0.4-0.1 0.7-0.3 1s-0.4 0.6-0.8 0.8c-0.3 0.2-0.7 0.4-1.2 0.5s-1 0.2-1.6 0.2-1.2-0.1-1.7-0.2c-0.5-0.2-0.9-0.4-1.2-0.7s-0.6-0.6-0.7-0.9c-0.2-0.3-0.3-0.7-0.3-1h2.1c0 0.2 0.1 0.4 0.2 0.6s0.2 0.3 0.4 0.4 0.4 0.2 0.6 0.2 0.4 0.1 0.7 0.1c0.5 0 0.9-0.1 1.2-0.3s0.7-0.6 0.7-0.9z"/>
</svg>
