<svg version="1.1" id="Layer_1" xmlns="http://www.w3.org/2000/svg" xmlns:xlink="http://www.w3.org/1999/xlink" x="0px" y="0px"
	 viewBox="0 0 216 216" style="enable-background:new 0 0 216 216;" xml:space="preserve">
<g>
	<path d="M194,98h-8V76c0-3.3-2.7-6-6-6H31c-3.3,0-6,2.7-6,6v64c0,3.3,2.7,6,6,6h13v3c0,2.8,2.2,5,5,5h91c2.8,0,5-2.2,5-5v-3h7v3
		c0,2.8,2.2,5,5,5h37c2.8,0,5-2.2,5-5v-46C199,100.2,196.8,98,194,98z M143,149c0,1.7-1.3,3-3,3H49c-1.7,0-3-1.3-3-3v-3h97V149z
		 M143,142H46v-39c0-1.7,1.3-3,3-3h91c1.7,0,3,1.3,3,3V142z M145,142v-39c0-2.8-2.2-5-5-5H49c-2.8,0-5,2.2-5,5v39H31
		c-1.1,0-2-0.9-2-2V76c0-1.1,0.9-2,2-2h149c1.1,0,2,0.9,2,2v22h-25c-2.8,0-5,2.2-5,5v39H145z M182,100v40c0,1.1-0.9,2-2,2h-26v-39
		c0-1.7,1.3-3,3-3H182z M197,149c0,1.7-1.3,3-3,3h-37c-1.7,0-3-1.3-3-3v-3h26c3.3,0,6-2.7,6-6v-40h8c1.7,0,3,1.3,3,3V149z"/>
	<path d="M41.9,87.7c-0.1-0.1-0.3-0.2-0.5-0.3c-0.2-0.1-0.4-0.1-0.6-0.1s-0.4,0-0.6,0.1c-0.2,0.1-0.3,0.2-0.5,0.3
		c-0.1,0.1-0.2,0.3-0.3,0.5c-0.1,0.2-0.1,0.4-0.1,0.6c0,0.2,0,0.4,0.1,0.6c0.1,0.2,0.2,0.3,0.3,0.4c0.1,0.1,0.3,0.2,0.5,0.3
		s0.4,0.1,0.6,0.1s0.4,0,0.6-0.1s0.3-0.2,0.5-0.3c0.1-0.1,0.2-0.3,0.3-0.4s0.1-0.4,0.1-0.6c0-0.2,0-0.4-0.1-0.6
		C42.1,88,42,87.9,41.9,87.7z"/>
	<path d="M52.8,81.4c-0.6,0-1.1,0.1-1.6,0.4c-0.5,0.3-0.9,0.6-1.2,1.1l-0.1-1.4h-2V90H50v-5.1c0.2-0.4,0.5-0.8,0.8-1
		s0.9-0.4,1.5-0.4c0.3,0,0.6,0,0.9,0.1c0.3,0,0.6,0.1,0.9,0.2l0.3-2.2c-0.2-0.1-0.4-0.1-0.7-0.1C53.4,81.4,53.1,81.4,52.8,81.4z"/>
	<path d="M62.9,82.6c-0.3-0.4-0.8-0.7-1.3-0.9c-0.5-0.2-1.1-0.3-1.7-0.3c-0.6,0-1.2,0.1-1.7,0.3s-0.9,0.5-1.2,0.9
		c-0.3,0.4-0.6,0.8-0.8,1.4c-0.2,0.5-0.3,1.1-0.3,1.7v0.2c0,0.6,0.1,1.2,0.3,1.7c0.2,0.5,0.4,1,0.8,1.4c0.3,0.4,0.8,0.7,1.3,0.9
		c0.5,0.2,1.1,0.3,1.7,0.3c0.6,0,1.2-0.1,1.7-0.3c0.5-0.2,0.9-0.5,1.2-0.9c0.3-0.4,0.6-0.8,0.8-1.4c0.2-0.5,0.3-1.1,0.3-1.7v-0.2
		c0-0.6-0.1-1.2-0.3-1.7C63.5,83.5,63.3,83,62.9,82.6z M61.8,85.9c0,0.4,0,0.7-0.1,1c-0.1,0.3-0.2,0.6-0.3,0.8
		c-0.1,0.2-0.3,0.4-0.6,0.6c-0.2,0.1-0.5,0.2-0.8,0.2c-0.3,0-0.6-0.1-0.8-0.2c-0.2-0.1-0.4-0.3-0.6-0.6c-0.1-0.2-0.3-0.5-0.3-0.8
		c-0.1-0.3-0.1-0.6-0.1-1v-0.2c0-0.3,0-0.7,0.1-1c0.1-0.3,0.2-0.6,0.3-0.8c0.1-0.2,0.3-0.4,0.6-0.6c0.2-0.1,0.5-0.2,0.8-0.2
		c0.3,0,0.6,0.1,0.8,0.2c0.2,0.1,0.4,0.3,0.6,0.6c0.1,0.2,0.2,0.5,0.3,0.8c0.1,0.3,0.1,0.6,0.1,1V85.9z"/>
	<polygon points="71.3,87.4 70.2,81.5 68.8,81.5 67.7,87.4 67,81.5 65,81.5 66.5,90 68.4,90 69.5,84.6 70.6,90 72.5,90 74,81.5 
		72,81.5 	"/>
	<path d="M59.9,114.7c-0.1-0.1-0.3-0.2-0.5-0.3c-0.2-0.1-0.4-0.1-0.6-0.1s-0.4,0-0.6,0.1c-0.2,0.1-0.3,0.2-0.5,0.3
		c-0.1,0.1-0.2,0.3-0.3,0.5c-0.1,0.2-0.1,0.4-0.1,0.6c0,0.2,0,0.4,0.1,0.6c0.1,0.2,0.2,0.3,0.3,0.4c0.1,0.1,0.3,0.2,0.5,0.3
		s0.4,0.1,0.6,0.1s0.4,0,0.6-0.1s0.3-0.2,0.5-0.3c0.1-0.1,0.2-0.3,0.3-0.4s0.1-0.4,0.1-0.6c0-0.2,0-0.4-0.1-0.6
		C60.1,115,60,114.9,59.9,114.7z"/>
	<path d="M66.8,111.7c0.1-0.3,0.1-0.6,0.3-0.8s0.3-0.4,0.5-0.6c0.2-0.1,0.5-0.2,0.9-0.2c0.2,0,0.5,0,0.6,0.1
		c0.2,0.1,0.4,0.2,0.5,0.3c0.1,0.1,0.2,0.3,0.3,0.5c0.1,0.2,0.1,0.4,0.1,0.6h2c0-0.5-0.1-1-0.2-1.4c-0.2-0.4-0.4-0.7-0.7-1
		c-0.3-0.3-0.7-0.5-1.1-0.7c-0.4-0.2-0.9-0.2-1.4-0.2c-0.7,0-1.2,0.1-1.7,0.3c-0.5,0.2-0.9,0.5-1.2,0.9c-0.3,0.4-0.6,0.8-0.8,1.4
		c-0.2,0.5-0.2,1.1-0.2,1.7v0.2c0,0.6,0.1,1.2,0.3,1.7c0.2,0.5,0.4,1,0.8,1.4c0.3,0.4,0.7,0.7,1.2,0.9c0.5,0.2,1.1,0.3,1.7,0.3
		c0.5,0,0.9-0.1,1.4-0.2c0.4-0.2,0.8-0.4,1.1-0.6c0.3-0.3,0.6-0.6,0.8-1c0.2-0.4,0.3-0.8,0.3-1.2h-2c0,0.2,0,0.4-0.1,0.5
		c-0.1,0.2-0.2,0.3-0.3,0.4c-0.1,0.1-0.3,0.2-0.5,0.3c-0.2,0.1-0.4,0.1-0.6,0.1c-0.3,0-0.6-0.1-0.9-0.2s-0.4-0.3-0.5-0.6
		c-0.1-0.2-0.2-0.5-0.3-0.8c-0.1-0.3-0.1-0.6-0.1-0.9v-0.2C66.7,112.3,66.7,112,66.8,111.7z"/>
	<path d="M80.9,109.6c-0.3-0.4-0.8-0.7-1.3-0.9c-0.5-0.2-1.1-0.3-1.7-0.3c-0.6,0-1.2,0.1-1.7,0.3s-0.9,0.5-1.2,0.9
		c-0.3,0.4-0.6,0.8-0.8,1.4c-0.2,0.5-0.3,1.1-0.3,1.7v0.2c0,0.6,0.1,1.2,0.3,1.7c0.2,0.5,0.4,1,0.8,1.4c0.3,0.4,0.8,0.7,1.3,0.9
		c0.5,0.2,1.1,0.3,1.7,0.3c0.6,0,1.2-0.1,1.7-0.3c0.5-0.2,0.9-0.5,1.2-0.9c0.3-0.4,0.6-0.8,0.8-1.4c0.2-0.5,0.3-1.1,0.3-1.7v-0.2
		c0-0.6-0.1-1.2-0.3-1.7C81.5,110.5,81.3,110,80.9,109.6z M79.8,112.9c0,0.4,0,0.7-0.1,1c-0.1,0.3-0.2,0.6-0.3,0.8
		c-0.1,0.2-0.3,0.4-0.6,0.6c-0.2,0.1-0.5,0.2-0.8,0.2c-0.3,0-0.6-0.1-0.8-0.2c-0.2-0.1-0.4-0.3-0.6-0.6c-0.1-0.2-0.3-0.5-0.3-0.8
		c-0.1-0.3-0.1-0.6-0.1-1v-0.2c0-0.3,0-0.7,0.1-1c0.1-0.3,0.2-0.6,0.3-0.8c0.1-0.2,0.3-0.4,0.6-0.6c0.2-0.1,0.5-0.2,0.8-0.2
		c0.3,0,0.6,0.1,0.8,0.2c0.2,0.1,0.4,0.3,0.6,0.6c0.1,0.2,0.2,0.5,0.3,0.8c0.1,0.3,0.1,0.6,0.1,1V112.9z"/>
	<polygon points="89.1,105 84.4,105 84.4,106.8 86.9,106.8 86.9,115.2 84.4,115.2 84.4,117 91.5,117 91.5,115.2 89.1,115.2 	"/>
	<path d="M98.8,114.5c-0.1,0.3-0.3,0.5-0.6,0.7c-0.3,0.2-0.6,0.2-1.1,0.2c-0.3,0-0.5,0-0.6-0.1c-0.2-0.1-0.3-0.2-0.4-0.3
		c-0.1-0.1-0.2-0.3-0.2-0.6c0-0.2-0.1-0.5-0.1-0.9v-5h-2.2v5c0,0.6,0.1,1.2,0.2,1.6c0.1,0.5,0.3,0.8,0.6,1.1
		c0.3,0.3,0.6,0.5,0.9,0.6c0.4,0.1,0.8,0.2,1.2,0.2c0.5,0,0.9-0.1,1.3-0.4c0.4-0.2,0.7-0.6,1-1L99,117h2v-8.5h-2.2V114.5z"/>
	<path d="M110.4,109c-0.2-0.2-0.4-0.4-0.6-0.4c-0.2-0.1-0.5-0.1-0.7-0.1c-0.4,0-0.7,0.1-0.9,0.2c-0.3,0.2-0.5,0.4-0.6,0.7
		c-0.2-0.6-0.7-0.9-1.3-0.9c-0.4,0-0.8,0.1-1,0.3c-0.3,0.2-0.5,0.5-0.7,0.9l-0.1-1h-1.9v8.5h2v-6.3c0.1-0.2,0.1-0.3,0.2-0.4
		s0.2-0.1,0.4-0.1c0.1,0,0.2,0,0.2,0c0.1,0,0.1,0.1,0.2,0.1c0.1,0.1,0.1,0.1,0.1,0.2c0,0.1,0,0.2,0,0.4v6h1.9v-6.5
		c0.1-0.1,0.1-0.2,0.2-0.3c0.1-0.1,0.2-0.1,0.4-0.1c0.1,0,0.2,0,0.2,0c0.1,0,0.1,0.1,0.2,0.1c0.1,0.1,0.1,0.1,0.1,0.2
		c0,0.1,0.1,0.2,0.1,0.4v6h2v-6c0-0.5,0-0.9-0.1-1.2C110.7,109.5,110.6,109.2,110.4,109z"/>
	<path d="M119.4,109.2c-0.3-0.3-0.6-0.5-0.9-0.6c-0.4-0.1-0.7-0.2-1.2-0.2c-0.5,0-1,0.1-1.4,0.3c-0.4,0.2-0.8,0.6-1.1,1l-0.1-1.2h-2
		v8.5h2.2v-6c0.2-0.3,0.4-0.5,0.6-0.6c0.3-0.1,0.6-0.2,0.9-0.2c0.2,0,0.5,0,0.7,0.1c0.2,0,0.4,0.1,0.5,0.3s0.2,0.3,0.3,0.5
		c0.1,0.2,0.1,0.5,0.1,0.8v5.2h2.2v-5.2c0-0.6-0.1-1.1-0.2-1.6C119.9,109.8,119.7,109.4,119.4,109.2z"/>
</g>
</svg>
