<svg version="1.1" id="Layer_1" xmlns="http://www.w3.org/2000/svg" xmlns:xlink="http://www.w3.org/1999/xlink" x="0px" y="0px"
	 viewBox="0 0 216 216" style="enable-background:new 0 0 216 216;" xml:space="preserve">
<g>
	<path d="M167,43H49c-3.3,0-6,2.7-6,6v55c0,3.3,2.7,6,6,6h118c3.3,0,6-2.7,6-6V49C173,45.7,170.3,43,167,43z M169,104
		c0,1.1-0.9,2-2,2H49c-1.1,0-2-0.9-2-2V49c0-1.1,0.9-2,2-2h118c1.1,0,2,0.9,2,2V104z"/>
	<path d="M104,115H49c-3.3,0-6,2.7-6,6v37c0,3.3,2.7,6,6,6h55c3.3,0,6-2.7,6-6v-37C110,117.7,107.3,115,104,115z M106,158
		c0,1.1-0.9,2-2,2H49c-1.1,0-2-0.9-2-2v-37c0-1.1,0.9-2,2-2h55c1.1,0,2,0.9,2,2V158z"/>
	<path d="M135,142h-4.2l5.6-5.6l-2.8-2.8L123.2,144l10.4,10.4l2.8-2.8l-5.6-5.6h4.2c11,0,20-9,20-20h-4C151,134.8,143.8,142,135,142
		z"/>
</g>
</svg>
