<svg version="1.1" id="Layer_1" xmlns="http://www.w3.org/2000/svg" xmlns:xlink="http://www.w3.org/1999/xlink" x="0px" y="0px"
	 viewBox="0 0 216 216" style="enable-background:new 0 0 216 216;" xml:space="preserve">
<g>
	<path d="M185,70H31c-3.3,0-6,2.7-6,6v64c0,3.3,2.7,6,6,6h154c3.3,0,6-2.7,6-6V76C191,72.7,188.3,70,185,70z M187,140
		c0,1.1-0.9,2-2,2H31c-1.1,0-2-0.9-2-2V76c0-1.1,0.9-2,2-2h154c1.1,0,2,0.9,2,2V140z"/>
	<path d="M77,89H49c-2.8,0-5,2.2-5,5v28c0,2.8,2.2,5,5,5h28c2.8,0,5-2.2,5-5V94C82,91.2,79.8,89,77,89z M80,122c0,1.7-1.3,3-3,3H49
		c-1.7,0-3-1.3-3-3V94c0-1.7,1.3-3,3-3h28c1.7,0,3,1.3,3,3V122z"/>
	<path d="M122,89H94c-2.8,0-5,2.2-5,5v28c0,2.8,2.2,5,5,5h28c2.8,0,5-2.2,5-5V94C127,91.2,124.8,89,122,89z M125,122
		c0,1.7-1.3,3-3,3H94c-1.7,0-3-1.3-3-3V94c0-1.7,1.3-3,3-3h28c1.7,0,3,1.3,3,3V122z"/>
	<path d="M167,89h-28c-2.8,0-5,2.2-5,5v28c0,2.8,2.2,5,5,5h28c2.8,0,5-2.2,5-5V94C172,91.2,169.8,89,167,89z M170,122
		c0,1.7-1.3,3-3,3h-28c-1.7,0-3-1.3-3-3V94c0-1.7,1.3-3,3-3h28c1.7,0,3,1.3,3,3V122z"/>
	<polygon points="118.4,55.4 115.6,52.6 110,58.2 110,36 106,36 106,58.2 100.4,52.6 97.6,55.4 108,65.8 	"/>
</g>
</svg>
