<svg version="1.1" id="Layer_1" xmlns="http://www.w3.org/2000/svg" xmlns:xlink="http://www.w3.org/1999/xlink" x="0px" y="0px"
	 viewBox="0 0 216 216" style="enable-background:new 0 0 216 216;" xml:space="preserve">
<g>
	<path d="M95,137c3.3,0,6-2.7,6-6V85c0-3.3-2.7-6-6-6H40c-3.3,0-6,2.7-6,6v46c0,3.3,2.7,6,6,6H95z M38,131V85c0-1.1,0.9-2,2-2h55
		c1.1,0,2,0.9,2,2v46c0,1.1-0.9,2-2,2H40C38.9,133,38,132.1,38,131z"/>
	<path d="M176,79h-55c-3.3,0-6,2.7-6,6v46c0,3.3,2.7,6,6,6h55c3.3,0,6-2.7,6-6V85C182,81.7,179.3,79,176,79z M178,131
		c0,1.1-0.9,2-2,2h-55c-1.1,0-2-0.9-2-2V85c0-1.1,0.9-2,2-2h55c1.1,0,2,0.9,2,2V131z"/>
	<path d="M131,143H85c-2.8,0-5,2.2-5,5v23h2v-23c0-1.7,1.3-3,3-3h46c1.7,0,3,1.3,3,3v23h2v-23C136,145.2,133.8,143,131,143z"/>
	<path d="M143,148v23h2v-23c0-1.7,1.3-3,3-3h32v-2h-32C145.2,143,143,145.2,143,148z"/>
	<path d="M68,143H36v2h32c1.7,0,3,1.3,3,3v23h2v-23C73,145.2,70.8,143,68,143z"/>
	<path d="M85,73h46c2.8,0,5-2.2,5-5V45h-2v23c0,1.7-1.3,3-3,3H85c-1.7,0-3-1.3-3-3V45h-2v23C80,70.8,82.2,73,85,73z"/>
	<path d="M148,73h32v-2h-32c-1.7,0-3-1.3-3-3V45h-2v23C143,70.8,145.2,73,148,73z"/>
	<path d="M73,68V45h-2v23c0,1.7-1.3,3-3,3H36v2h32C70.8,73,73,70.8,73,68z"/>
</g>
</svg>
