<svg version="1.1" id="Layer_1" xmlns="http://www.w3.org/2000/svg" xmlns:xlink="http://www.w3.org/1999/xlink" x="0px" y="0px"
	 viewBox="0 0 216 216" style="enable-background:new 0 0 216 216;" xml:space="preserve">
<g>
	<g>
		<path d="M167,53H49c-2.8,0-5,2.8-5,6.1v70.7c0,2.8,1.6,6.1,9,6.1h4v-2h-4c-7,0-7-3-7-4.1V59.1c0-2.3,1.3-4.1,3-4.1h118
			c1.7,0,3,1.9,3,4.1v70.7c0,1-0.3,1.9-0.5,2.7c-0.1,0.5-0.3,1-0.3,1.4H159v2h12v-2c0.1,0.1,0.2,0.2,0.2,0.3c0-0.2,0.1-0.8,0.3-1.2
			c0.2-0.9,0.5-2,0.5-3.3V59.1C172,55.8,169.8,53,167,53z M170.9,134L170.9,134C170.9,134,170.9,134,170.9,134L170.9,134z"/>
	</g>
</g>
<g>
	<g>
		<g>
			<path d="M148,88H68c-3.9,0-7,2.7-7,6v46c0,3.3,3.1,6,7,6h7v-4h-7c-1.6,0-3-0.9-3-2V94c0-1.1,1.4-2,3-2h80c1.6,0,3,0.9,3,2v46
				c0,1.1-1.4,2-3,2h-25v4h25c3.9,0,7-2.7,7-6V94C155,90.7,151.9,88,148,88z"/>
		</g>
	</g>
	<g>
		<path d="M113,172H85c-2.8,0-5-2.2-5-5v-46c0-2.8,2.2-5,5-5h28c2.8,0,5,2.2,5,5v46C118,169.8,115.8,172,113,172z M85,118
			c-1.7,0-3,1.3-3,3v46c0,1.7,1.3,3,3,3h28c1.7,0,3-1.3,3-3v-46c0-1.7-1.3-3-3-3H85z"/>
	</g>
</g>
<g>
	<path d="M75.3,106.7c0-0.2,0-0.4,0.1-0.6c0.1-0.2,0.2-0.3,0.3-0.5c0.1-0.1,0.3-0.2,0.5-0.3c0.2-0.1,0.4-0.1,0.6-0.1s0.4,0,0.6,0.1
		c0.2,0.1,0.3,0.2,0.5,0.3c0.1,0.1,0.2,0.3,0.3,0.5c0.1,0.2,0.1,0.4,0.1,0.6c0,0.2,0,0.4-0.1,0.6s-0.2,0.3-0.3,0.4
		c-0.1,0.1-0.3,0.2-0.5,0.3s-0.4,0.1-0.6,0.1s-0.4,0-0.6-0.1s-0.3-0.2-0.5-0.3c-0.1-0.1-0.2-0.3-0.3-0.4
		C75.3,107.1,75.3,106.9,75.3,106.7z"/>
	<path d="M84.1,99.5l0.1,1c0.2-0.4,0.4-0.7,0.7-0.9c0.3-0.2,0.6-0.3,1-0.3c0.7,0,1.1,0.3,1.3,0.9c0.2-0.3,0.4-0.5,0.6-0.7
		c0.3-0.2,0.6-0.2,0.9-0.2c0.3,0,0.5,0,0.7,0.1c0.2,0.1,0.4,0.2,0.6,0.4c0.2,0.2,0.3,0.5,0.4,0.8c0.1,0.3,0.1,0.7,0.1,1.2v6h-2v-6
		c0-0.2,0-0.3-0.1-0.4c0-0.1-0.1-0.2-0.1-0.2c-0.1-0.1-0.1-0.1-0.2-0.1c-0.1,0-0.2,0-0.2,0c-0.2,0-0.3,0-0.4,0.1
		c-0.1,0.1-0.2,0.2-0.2,0.3v6.5h-1.9v-6c0-0.2,0-0.3,0-0.4c0-0.1-0.1-0.2-0.1-0.2c-0.1-0.1-0.1-0.1-0.2-0.1c-0.1,0-0.2,0-0.2,0
		c-0.2,0-0.3,0-0.4,0.1s-0.2,0.2-0.2,0.4v6.3h-2v-8.5H84.1z"/>
	<path d="M99.9,103.9h-6.5v-1.8h6.5V103.9z"/>
	<path d="M101.6,103.7c0-0.6,0.1-1.2,0.3-1.7c0.2-0.5,0.4-1,0.8-1.4c0.3-0.4,0.8-0.7,1.2-0.9s1.1-0.3,1.7-0.3c0.6,0,1.2,0.1,1.7,0.3
		c0.5,0.2,0.9,0.5,1.3,0.9c0.3,0.4,0.6,0.8,0.8,1.4c0.2,0.5,0.3,1.1,0.3,1.7v0.2c0,0.6-0.1,1.2-0.3,1.7c-0.2,0.5-0.4,1-0.8,1.4
		c-0.3,0.4-0.8,0.7-1.2,0.9c-0.5,0.2-1.1,0.3-1.7,0.3c-0.6,0-1.2-0.1-1.7-0.3c-0.5-0.2-0.9-0.5-1.3-0.9c-0.3-0.4-0.6-0.8-0.8-1.4
		c-0.2-0.5-0.3-1.1-0.3-1.7V103.7z M103.8,103.9c0,0.4,0,0.7,0.1,1c0.1,0.3,0.2,0.6,0.3,0.8c0.1,0.2,0.3,0.4,0.6,0.6
		c0.2,0.1,0.5,0.2,0.8,0.2c0.3,0,0.6-0.1,0.8-0.2c0.2-0.1,0.4-0.3,0.6-0.6c0.1-0.2,0.2-0.5,0.3-0.8c0.1-0.3,0.1-0.6,0.1-1v-0.2
		c0-0.3,0-0.7-0.1-1c-0.1-0.3-0.2-0.6-0.3-0.8c-0.1-0.2-0.3-0.4-0.6-0.6c-0.2-0.1-0.5-0.2-0.8-0.2c-0.3,0-0.6,0.1-0.8,0.2
		c-0.2,0.1-0.4,0.3-0.6,0.6c-0.1,0.2-0.3,0.5-0.3,0.8c-0.1,0.3-0.1,0.6-0.1,1V103.9z"/>
	<path d="M113.5,99.5l0.1,1.2c0.3-0.4,0.7-0.7,1.1-1c0.4-0.2,0.9-0.3,1.4-0.3c0.4,0,0.8,0.1,1.2,0.2c0.4,0.1,0.7,0.3,0.9,0.6
		s0.5,0.6,0.6,1.1c0.1,0.4,0.2,1,0.2,1.6v5.2h-2.2v-5.2c0-0.3,0-0.6-0.1-0.8c-0.1-0.2-0.2-0.4-0.3-0.5s-0.3-0.2-0.5-0.3
		c-0.2,0-0.4-0.1-0.7-0.1c-0.4,0-0.7,0.1-0.9,0.2c-0.3,0.1-0.5,0.4-0.6,0.6v6h-2.2v-8.5H113.5z"/>
	<path d="M121.6,96h4.7v10.2h2.4v1.8h-7.1v-1.8h2.5v-8.5h-2.5V96z"/>
	<path d="M134.3,104.5l0.2,0.9l2.2-5.8h2.4l-4.3,9.7c-0.1,0.2-0.2,0.4-0.4,0.7s-0.3,0.5-0.6,0.7c-0.2,0.2-0.5,0.4-0.8,0.5
		c-0.3,0.1-0.7,0.2-1.1,0.2c-0.1,0-0.2,0-0.3,0c-0.1,0-0.2,0-0.3,0c-0.1,0-0.2,0-0.2,0c-0.1,0-0.2,0-0.3-0.1l0.3-1.7
		c0.1,0,0.2,0,0.3,0c0.1,0,0.2,0,0.3,0c0.2,0,0.3-0.1,0.5-0.2c0.1-0.1,0.2-0.2,0.3-0.3s0.2-0.2,0.2-0.3c0.1-0.1,0.1-0.2,0.1-0.2
		l0.5-1l-3.6-8.1h2.4L134.3,104.5z"/>
</g>
</svg>
