<svg version="1.1" id="Layer_1" xmlns="http://www.w3.org/2000/svg" xmlns:xlink="http://www.w3.org/1999/xlink" x="0px" y="0px"
	 viewBox="0 0 216 216" style="enable-background:new 0 0 216 216;" xml:space="preserve">
<g>
	<path d="M140,70H76c-3.3,0-6,2.7-6,6v64c0,3.3,2.7,6,6,6h64c3.3,0,6-2.7,6-6V76C146,72.7,143.3,70,140,70z M142,140
		c0,1.1-0.9,2-2,2H76c-1.1,0-2-0.9-2-2V76c0-1.1,0.9-2,2-2h64c1.1,0,2,0.9,2,2V140z"/>
	<path d="M166,73h23v-2h-23c-2.8,0-5,2.2-5,5v64c0,2.8,2.2,5,5,5h23v-2h-23c-1.7,0-3-1.3-3-3V76C163,74.3,164.3,73,166,73z"/>
	<path d="M50,71H27v2h23c1.7,0,3,1.3,3,3v64c0,1.7-1.3,3-3,3H27v2h23c2.8,0,5-2.2,5-5V76C55,73.2,52.8,71,50,71z"/>
	<rect x="88.9" y="106" transform="matrix(0.7071 -0.7071 0.7071 0.7071 -44.7351 108)" width="38.2" height="4"/>
	<path d="M99,105.5c3.6,0,6.5-2.9,6.5-6.5s-2.9-6.5-6.5-6.5s-6.5,2.9-6.5,6.5S95.4,105.5,99,105.5z M99,96.5c1.4,0,2.5,1.1,2.5,2.5
		s-1.1,2.5-2.5,2.5s-2.5-1.1-2.5-2.5S97.6,96.5,99,96.5z"/>
	<path d="M117,110.5c-3.6,0-6.5,2.9-6.5,6.5s2.9,6.5,6.5,6.5s6.5-2.9,6.5-6.5S120.6,110.5,117,110.5z M117,119.5
		c-1.4,0-2.5-1.1-2.5-2.5s1.1-2.5,2.5-2.5s2.5,1.1,2.5,2.5S118.4,119.5,117,119.5z"/>
</g>
</svg>
