<?xml version="1.0" encoding="utf-8"?>
<!-- Generator: Adobe Illustrator 17.0.0, SVG Export Plug-In . SVG Version: 6.00 Build 0)  -->
<!DOCTYPE svg PUBLIC "-//W3C//DTD SVG 1.1//EN" "http://www.w3.org/Graphics/SVG/1.1/DTD/svg11.dtd">
<svg version="1.1" xmlns="http://www.w3.org/2000/svg" xmlns:xlink="http://www.w3.org/1999/xlink" x="0px" y="0px" width="64px"
	 height="64px" viewBox="0 0 64 64" enable-background="new 0 0 64 64" xml:space="preserve">
<g id="Layer_2" display="none">
	<g display="inline">
		<rect x="-8" y="56" opacity="0.1" fill="#010101" width="800" height="32"/>
		<rect x="-6" y="-24" opacity="0.1" fill="#010101" width="800" height="32"/>
		<rect x="56" y="-20" opacity="0.1" fill="#010101" width="32" height="800"/>
		<rect x="-24" y="-22" opacity="0.1" fill="#010101" width="32" height="800"/>
	</g>
</g>
<g id="Layer_1">
	<path id="White_2_" d="M53.376,8H10.651C9.187,8,8,9.186,8,10.649v42.702C8,54.814,9.187,56,10.651,56h23.002V37.412h-6.259v-7.244
		h6.259v-5.342c0-6.2,3.789-9.576,9.322-9.576c2.651,0,4.929,0.197,5.593,0.285v6.479l-3.838,0.002c-3.01,0-3.592,1.429-3.592,3.527
		v4.625h7.177l-0.935,7.244h-6.243V56h12.238c1.464,0,2.651-1.186,2.651-2.649V10.649C56.027,9.186,54.84,8,53.376,8z"/>
</g>
</svg>
