<?xml version="1.0" encoding="utf-8"?>
<!-- Generator: Adobe Illustrator 17.0.0, SVG Export Plug-In . SVG Version: 6.00 Build 0)  -->
<!DOCTYPE svg PUBLIC "-//W3C//DTD SVG 1.1//EN" "http://www.w3.org/Graphics/SVG/1.1/DTD/svg11.dtd">
<svg version="1.1" xmlns="http://www.w3.org/2000/svg" xmlns:xlink="http://www.w3.org/1999/xlink" x="0px" y="0px" width="64px"
	 height="64px" viewBox="0 0 64 64" enable-background="new 0 0 64 64" xml:space="preserve">
<g id="Layer_2" display="none">
	<g display="inline">
		<rect x="-88" y="56" opacity="0.1" fill="#010101" width="800" height="32"/>
		<rect x="-86" y="-24" opacity="0.1" fill="#010101" width="800" height="32"/>
		<rect x="-24" y="-20" opacity="0.1" fill="#010101" width="32" height="800"/>
		<rect x="56" y="-20" opacity="0.1" fill="#010101" width="32" height="800"/>
	</g>
</g>
<g id="Layer_1">
	<g>
		<path fill="#010101" d="M32,12.711c6.408,0,7.167,0.024,9.698,0.138c2.34,0.106,3.611,0.492,4.456,0.817
			c1.12,0.43,1.92,0.944,2.76,1.774c0.84,0.83,1.36,1.62,1.795,2.727c0.329,0.836,0.72,2.091,0.826,4.403
			c0.115,2.501,0.14,3.251,0.14,9.583s-0.024,7.082-0.14,9.583c-0.107,2.312-0.498,3.568-0.826,4.403
			c-0.435,1.107-0.955,1.897-1.795,2.727c-0.84,0.83-1.639,1.344-2.76,1.774c-0.846,0.325-2.117,0.711-4.456,0.817
			c-2.53,0.114-3.289,0.138-9.698,0.138s-7.168-0.024-9.698-0.138c-2.34-0.105-3.611-0.492-4.456-0.817
			c-1.12-0.43-1.92-0.944-2.76-1.774c-0.84-0.83-1.36-1.62-1.795-2.727c-0.329-0.836-0.72-2.091-0.826-4.403
			c-0.115-2.501-0.14-3.251-0.14-9.583s0.024-7.082,0.14-9.583c0.107-2.312,0.498-3.568,0.826-4.403
			c0.435-1.107,0.955-1.897,1.795-2.727c0.84-0.83,1.639-1.344,2.76-1.774c0.846-0.325,2.117-0.711,4.456-0.817
			C24.833,12.735,25.592,12.711,32,12.711 M32,8.438c-6.518,0-7.335,0.027-9.895,0.143c-2.555,0.115-4.299,0.516-5.826,1.102
			c-1.578,0.606-2.917,1.417-4.251,2.735c-1.334,1.318-2.155,2.641-2.768,4.2c-0.593,1.508-0.999,3.232-1.116,5.756
			C8.028,24.904,8,25.712,8,32.152c0,6.44,0.028,7.248,0.144,9.777c0.117,2.524,0.522,4.248,1.116,5.756
			c0.613,1.559,1.434,2.882,2.768,4.2c1.334,1.318,2.673,2.129,4.251,2.735c1.527,0.586,3.271,0.987,5.826,1.102
			c2.56,0.115,3.377,0.143,9.895,0.143s7.335-0.027,9.895-0.143c2.555-0.115,4.299-0.516,5.826-1.102
			c1.578-0.606,2.917-1.417,4.251-2.735c1.334-1.318,2.155-2.641,2.768-4.2c0.593-1.508,0.999-3.232,1.116-5.756
			C55.972,39.4,56,38.593,56,32.152s-0.028-7.248-0.144-9.777c-0.117-2.524-0.522-4.248-1.116-5.756
			c-0.613-1.559-1.434-2.882-2.768-4.2c-1.334-1.318-2.673-2.129-4.251-2.735c-1.527-0.586-3.271-0.987-5.826-1.102
			C39.335,8.465,38.518,8.438,32,8.438L32,8.438z"/>
		<path fill="#010101" d="M32,19.975c-6.807,0-12.324,5.452-12.324,12.178S25.193,44.33,32,44.33s12.324-5.452,12.324-12.178
			S38.807,19.975,32,19.975z M32,40.057c-4.418,0-8-3.539-8-7.905s3.582-7.905,8-7.905s8,3.539,8,7.905S36.418,40.057,32,40.057z"/>
		<ellipse fill="#010101" cx="44.811" cy="19.494" rx="2.88" ry="2.846"/>
	</g>
</g>
</svg>
