<?xml version="1.0" encoding="utf-8"?>
<!-- Generator: Adobe Illustrator 17.0.0, SVG Export Plug-In . SVG Version: 6.00 Build 0)  -->
<!DOCTYPE svg PUBLIC "-//W3C//DTD SVG 1.1//EN" "http://www.w3.org/Graphics/SVG/1.1/DTD/svg11.dtd">
<svg version="1.1" xmlns="http://www.w3.org/2000/svg" xmlns:xlink="http://www.w3.org/1999/xlink" x="0px" y="0px" width="64px"
	 height="64px" viewBox="0 0 64 64" enable-background="new 0 0 64 64" xml:space="preserve">
<g id="Layer_2" display="none">
	<g display="inline">
		<rect x="-168" y="56" opacity="0.1" fill="#010101" width="800" height="32"/>
		<rect x="-166" y="-24" opacity="0.1" fill="#010101" width="800" height="32"/>
		<rect x="-24" y="-20" opacity="0.1" fill="#010101" width="32" height="800"/>
		<rect x="56" y="-20" opacity="0.1" fill="#010101" width="32" height="800"/>
	</g>
</g>
<g id="Layer_1">
	<g>
		<path d="M22.973,51.62c18.079,0,27.966-14.978,27.966-27.966c0-0.426-0.009-0.849-0.028-1.271
			c1.919-1.387,3.587-3.118,4.903-5.089c-1.761,0.782-3.656,1.31-5.645,1.547c2.029-1.217,3.587-3.142,4.322-5.437
			c-1.9,1.126-4.002,1.945-6.241,2.386c-1.794-1.91-4.348-3.105-7.175-3.105c-5.428,0-9.83,4.402-9.83,9.828
			c0,0.771,0.086,1.521,0.255,2.241c-8.169-0.411-15.412-4.322-20.259-10.269c-0.845,1.452-1.331,3.14-1.331,4.94
			c0,3.41,1.735,6.42,4.374,8.181c-1.612-0.05-3.127-0.493-4.452-1.23C9.83,26.418,9.83,26.459,9.83,26.503
			c0,4.761,3.388,8.735,7.886,9.636c-0.825,0.225-1.694,0.346-2.591,0.346c-0.633,0-1.249-0.063-1.848-0.177
			c1.251,3.905,4.88,6.747,9.182,6.827c-3.365,2.636-7.602,4.207-12.208,4.207c-0.793,0-1.575-0.045-2.345-0.136
			C12.257,49.993,17.421,51.62,22.973,51.62"/>
	</g>
</g>
</svg>
